<svg width="100" height="100" viewBox="0 0 100 100" fill="none" xmlns="http://www.w3.org/2000/svg">
<rect width="100" height="100" fill="white" fill-opacity="0.1"/>
<rect x="37.5" y="1.5" width="24" height="23" rx="3.5" fill="#ABABAB" stroke="#7C7C7C"/>
<rect x="37.5" y="75.5" width="24" height="23" rx="3.5" fill="#ABABAB" stroke="#7C7C7C"/>
<circle cx="50" cy="50" r="33.5" fill="#D9D9D9" stroke="#7C7C7C"/>
<path d="M23.7102 44.9901V42.4545H35.6562V44.9901H31.2031V57H28.1634V44.9901H23.7102ZM43.8665 42.4545V57H40.7912V45.3736H40.706L37.375 47.4616V44.7344L40.9759 42.4545H43.8665Z" fill="black"/>
<rect x="55" y="39" width="21" height="21" rx="2" fill="#FF007F"/>
<path d="M60.3801 57V54.7841L65.5577 49.9901C65.998 49.5639 66.3674 49.1804 66.6657 48.8395C66.9687 48.4986 67.1983 48.1648 67.3546 47.8381C67.5108 47.5066 67.589 47.1491 67.589 46.7656C67.589 46.3395 67.4919 45.9725 67.2978 45.6648C67.1036 45.3523 66.8385 45.1132 66.5023 44.9474C66.1661 44.777 65.785 44.6918 65.3588 44.6918C64.9138 44.6918 64.5255 44.7817 64.1941 44.9616C63.8626 45.1416 63.6069 45.3996 63.427 45.7358C63.2471 46.072 63.1571 46.4721 63.1571 46.9361H60.2381C60.2381 45.9844 60.4535 45.1581 60.8844 44.4574C61.3153 43.7566 61.919 43.2145 62.6955 42.831C63.472 42.4474 64.3669 42.2557 65.3801 42.2557C66.4218 42.2557 67.3285 42.4403 68.1003 42.8097C68.8768 43.1742 69.4805 43.6809 69.9114 44.3295C70.3423 44.9782 70.5577 45.7216 70.5577 46.5597C70.5577 47.1089 70.4488 47.651 70.231 48.1861C70.0179 48.7211 69.6368 49.3153 69.0875 49.9688C68.5383 50.6174 67.7641 51.3963 66.7651 52.3054L64.6415 54.3864V54.4858H70.7495V57H60.3801Z" fill="white"/>
</svg>
