<svg width="100" height="100" viewBox="0 0 100 100" fill="none" xmlns="http://www.w3.org/2000/svg">
<rect width="100" height="100" fill="white" fill-opacity="0.1"/>
<rect x="37.5" y="1.5" width="24" height="23" rx="3.5" fill="#ABABAB" stroke="#7C7C7C"/>
<rect x="37.5" y="75.5" width="24" height="23" rx="3.5" fill="#ABABAB" stroke="#7C7C7C"/>
<circle cx="50" cy="50" r="33.5" fill="#D9D9D9" stroke="#7C7C7C"/>
<path d="M23.7102 44.9901V42.4545H35.6562V44.9901H31.2031V57H28.1634V44.9901H23.7102ZM37.5384 57V54.7841L42.7159 49.9901C43.1563 49.5639 43.5256 49.1804 43.8239 48.8395C44.1269 48.4986 44.3565 48.1648 44.5128 47.8381C44.669 47.5066 44.7472 47.1491 44.7472 46.7656C44.7472 46.3395 44.6501 45.9725 44.456 45.6648C44.2618 45.3523 43.9967 45.1132 43.6605 44.9474C43.3243 44.777 42.9432 44.6918 42.517 44.6918C42.072 44.6918 41.6837 44.7817 41.3523 44.9616C41.0208 45.1416 40.7652 45.3996 40.5852 45.7358C40.4053 46.072 40.3153 46.4721 40.3153 46.9361H37.3963C37.3963 45.9844 37.6117 45.1581 38.0426 44.4574C38.4735 43.7566 39.0772 43.2145 39.8537 42.831C40.6302 42.4474 41.5251 42.2557 42.5384 42.2557C43.58 42.2557 44.4867 42.4403 45.2585 42.8097C46.035 43.1742 46.6387 43.6809 47.0696 44.3295C47.5005 44.9782 47.7159 45.7216 47.7159 46.5597C47.7159 47.1089 47.607 47.651 47.3892 48.1861C47.1761 48.7211 46.795 49.3153 46.2457 49.9688C45.6965 50.6174 44.9223 51.3963 43.9233 52.3054L41.7997 54.3864V54.4858H47.9077V57H37.5384Z" fill="black"/>
<rect x="55" y="39" width="21" height="21" rx="2" fill="#FF007F"/>
<path d="M60.3801 57V54.7841L65.5577 49.9901C65.998 49.5639 66.3674 49.1804 66.6657 48.8395C66.9687 48.4986 67.1983 48.1648 67.3546 47.8381C67.5108 47.5066 67.589 47.1491 67.589 46.7656C67.589 46.3395 67.4919 45.9725 67.2978 45.6648C67.1036 45.3523 66.8385 45.1132 66.5023 44.9474C66.1661 44.777 65.785 44.6918 65.3588 44.6918C64.9138 44.6918 64.5255 44.7817 64.1941 44.9616C63.8626 45.1416 63.6069 45.3996 63.427 45.7358C63.2471 46.072 63.1571 46.4721 63.1571 46.9361H60.2381C60.2381 45.9844 60.4535 45.1581 60.8844 44.4574C61.3153 43.7566 61.919 43.2145 62.6955 42.831C63.472 42.4474 64.3669 42.2557 65.3801 42.2557C66.4218 42.2557 67.3285 42.4403 68.1003 42.8097C68.8768 43.1742 69.4805 43.6809 69.9114 44.3295C70.3423 44.9782 70.5577 45.7216 70.5577 46.5597C70.5577 47.1089 70.4488 47.651 70.231 48.1861C70.0179 48.7211 69.6368 49.3153 69.0875 49.9688C68.5383 50.6174 67.7641 51.3963 66.7651 52.3054L64.6415 54.3864V54.4858H70.7495V57H60.3801Z" fill="white"/>
</svg>
