<svg width="100" height="100" viewBox="0 0 100 100" fill="none" xmlns="http://www.w3.org/2000/svg">
<rect width="100" height="100" fill="white" fill-opacity="0.1"/>
<rect x="37.5" y="1.5" width="24" height="23" rx="3.5" fill="#ABABAB" stroke="#7C7C7C"/>
<rect x="74.5" y="38.5" width="24" height="23" rx="3.5" fill="#ABABAB" stroke="#7C7C7C"/>
<rect x="1.5" y="38.5" width="24" height="23" rx="3.5" fill="#ABABAB" stroke="#7C7C7C"/>
<rect x="37.5" y="75.5" width="24" height="23" rx="3.5" fill="#ABABAB" stroke="#7C7C7C"/>
<circle cx="50" cy="50" r="33.5" fill="#D9D9D9" stroke="#7C7C7C"/>
<path d="M23.7102 44.9901V42.4545H35.6562V44.9901H31.2031V57H28.1634V44.9901H23.7102ZM42.9148 57.1989C41.8542 57.1989 40.9096 57.0166 40.081 56.652C39.2571 56.2827 38.6061 55.776 38.1278 55.1321C37.6544 54.4834 37.4105 53.7353 37.3963 52.8878H40.4929C40.5118 53.2429 40.6278 53.5554 40.8409 53.8253C41.0587 54.0904 41.3475 54.2964 41.7074 54.4432C42.0672 54.59 42.4721 54.6634 42.9219 54.6634C43.3906 54.6634 43.8049 54.5805 44.1648 54.4148C44.5246 54.2491 44.8063 54.0194 45.0099 53.7259C45.2135 53.4323 45.3153 53.0937 45.3153 52.7102C45.3153 52.322 45.2064 51.9787 44.9886 51.6804C44.7756 51.3774 44.4678 51.1406 44.0653 50.9702C43.6676 50.7997 43.1941 50.7145 42.6449 50.7145H41.2884V48.456H42.6449C43.1089 48.456 43.5185 48.3755 43.8736 48.2145C44.2334 48.0535 44.5128 47.831 44.7116 47.5469C44.9105 47.258 45.0099 46.9219 45.0099 46.5384C45.0099 46.1738 44.9223 45.8542 44.7472 45.5795C44.5767 45.3002 44.3352 45.0824 44.0227 44.9261C43.715 44.7699 43.3551 44.6918 42.9432 44.6918C42.5265 44.6918 42.1454 44.7675 41.7997 44.919C41.4541 45.0658 41.1771 45.2765 40.9688 45.5511C40.7604 45.8258 40.6491 46.1477 40.6349 46.517H37.6875C37.7017 45.679 37.9408 44.9403 38.4048 44.3011C38.8688 43.6619 39.4938 43.1624 40.2798 42.8026C41.0705 42.438 41.9631 42.2557 42.9574 42.2557C43.9612 42.2557 44.8395 42.438 45.5923 42.8026C46.3452 43.1671 46.9299 43.6596 47.3466 44.2798C47.768 44.8954 47.9763 45.5866 47.9716 46.3537C47.9763 47.1681 47.723 47.8475 47.2116 48.392C46.705 48.9366 46.0445 49.2822 45.2301 49.429V49.5426C46.3002 49.6799 47.1146 50.0516 47.6733 50.6577C48.2367 51.259 48.5161 52.0118 48.5114 52.9162C48.5161 53.7448 48.277 54.4811 47.794 55.125C47.3158 55.7689 46.6553 56.2756 45.8125 56.6449C44.9697 57.0142 44.0038 57.1989 42.9148 57.1989Z" fill="black"/>
<rect x="55" y="39" width="21" height="21" rx="2" fill="#FF007F"/>
<path d="M59.6815 54.4432V52.0213L65.7539 42.4545H67.842V45.8068H66.6062L62.7781 51.8651V51.9787H71.4073V54.4432H59.6815ZM66.663 57V53.7045L66.7198 52.6321V42.4545H69.6033V57H66.663Z" fill="white"/>
</svg>
