<svg width="100" height="100" viewBox="0 0 100 100" fill="none" xmlns="http://www.w3.org/2000/svg">
<rect width="100" height="100" fill="white" fill-opacity="0.1"/>
<rect x="37.5" y="1.5" width="24" height="23" rx="3.5" fill="#ABABAB" stroke="#7C7C7C"/>
<rect x="74.5" y="38.5" width="24" height="23" rx="3.5" fill="#ABABAB" stroke="#7C7C7C"/>
<rect x="1.5" y="38.5" width="24" height="23" rx="3.5" fill="#ABABAB" stroke="#7C7C7C"/>
<rect x="37.5" y="75.5" width="24" height="23" rx="3.5" fill="#ABABAB" stroke="#7C7C7C"/>
<circle cx="50" cy="50" r="33.5" fill="#D9D9D9" stroke="#7C7C7C"/>
<path d="M23.7102 44.9901V42.4545H35.6562V44.9901H31.2031V57H28.1634V44.9901H23.7102ZM35.951 54.4432V52.0213L42.0234 42.4545H44.1115V45.8068H42.8757L39.0476 51.8651V51.9787H47.6768V54.4432H35.951ZM42.9325 57V53.7045L42.9893 52.6321V42.4545H45.8729V57H42.9325Z" fill="black"/>
<rect x="55" y="39" width="21" height="21" rx="2" fill="#FF007F"/>
<path d="M59.6815 54.4432V52.0213L65.7539 42.4545H67.842V45.8068H66.6062L62.7781 51.8651V51.9787H71.4073V54.4432H59.6815ZM66.663 57V53.7045L66.7198 52.6321V42.4545H69.6033V57H66.663Z" fill="white"/>
</svg>
