<svg width="100" height="100" viewBox="0 0 100 100" fill="none" xmlns="http://www.w3.org/2000/svg">
<g clip-path="url(#clip0_1_85)">
<rect width="100" height="100" fill="white" fill-opacity="0.1"/>
<rect x="37.5" y="1.5" width="24" height="23" rx="3.5" fill="#ABABAB" stroke="#7C7C7C"/>
<rect x="67.683" y="25.683" width="24" height="23" rx="3.5" transform="rotate(-30 67.683 25.683)" fill="#ABABAB" stroke="#7C7C7C"/>
<rect x="33.0594" y="74.5543" width="24" height="23" rx="3.5" transform="rotate(149.871 33.0594 74.5543)" fill="#ABABAB" stroke="#7C7C7C"/>
<rect x="79.183" y="54.683" width="24" height="23" rx="3.5" transform="rotate(30 79.183 54.683)" fill="#ABABAB" stroke="#7C7C7C"/>
<rect x="21.4942" y="45.5802" width="24" height="23" rx="3.5" transform="rotate(-150.129 21.4942 45.5802)" fill="#ABABAB" stroke="#7C7C7C"/>
<rect x="37.5" y="75.5" width="24" height="23" rx="3.5" fill="#ABABAB" stroke="#7C7C7C"/>
<circle cx="50" cy="50" r="33.5" fill="#D9D9D9" stroke="#7C7C7C"/>
<path d="M23.7102 44.9901V42.4545H35.6562V44.9901H31.2031V57H28.1634V44.9901H23.7102ZM42.8509 57.1989C41.8471 57.1989 40.9522 57.0142 40.1662 56.6449C39.3849 56.2756 38.7647 55.7666 38.3054 55.1179C37.8461 54.4692 37.607 53.7259 37.5881 52.8878H40.571C40.6042 53.4512 40.8409 53.9081 41.2812 54.2585C41.7216 54.6089 42.2448 54.7841 42.8509 54.7841C43.3338 54.7841 43.7599 54.6776 44.1293 54.4645C44.5033 54.2467 44.7945 53.946 45.0028 53.5625C45.2159 53.1742 45.3224 52.7292 45.3224 52.2273C45.3224 51.7159 45.2135 51.2661 44.9957 50.8778C44.7827 50.4896 44.4867 50.1866 44.108 49.9688C43.7292 49.7509 43.2959 49.6397 42.8082 49.6349C42.3821 49.6349 41.9678 49.7225 41.5653 49.8977C41.1676 50.0729 40.8575 50.312 40.6349 50.6151L37.9006 50.125L38.5895 42.4545H47.4815V44.9688H41.125L40.7486 48.6122H40.8338C41.0895 48.2524 41.4754 47.9541 41.9915 47.7173C42.5076 47.4806 43.0852 47.3622 43.7244 47.3622C44.6004 47.3622 45.3816 47.5682 46.0682 47.9801C46.7547 48.392 47.2969 48.9579 47.6946 49.6776C48.0923 50.3925 48.2888 51.2164 48.2841 52.1491C48.2888 53.1293 48.0616 54.0005 47.6023 54.7628C47.1477 55.5204 46.5109 56.117 45.6918 56.5526C44.8774 56.9834 43.9304 57.1989 42.8509 57.1989Z" fill="black"/>
<rect x="55" y="39" width="21" height="21" rx="2" fill="#FF007F"/>
<path d="M65.6598 57.1989C64.9117 57.1941 64.1896 57.0687 63.4936 56.8224C62.8023 56.5762 62.1821 56.1761 61.6328 55.6222C61.0836 55.0682 60.648 54.3343 60.326 53.4205C60.0088 52.5066 59.8501 51.3845 59.8501 50.054C59.8549 48.8324 59.9946 47.741 60.2692 46.7798C60.5485 45.8139 60.9463 44.9948 61.4624 44.3224C61.9832 43.6501 62.6058 43.1387 63.3303 42.7884C64.0547 42.4332 64.8667 42.2557 65.7663 42.2557C66.737 42.2557 67.594 42.4451 68.3374 42.8239C69.0807 43.1979 69.6773 43.7069 70.1271 44.3509C70.5817 44.9948 70.8563 45.7169 70.951 46.517H67.9183C67.8 46.0104 67.5514 45.6127 67.1726 45.3239C66.7938 45.035 66.325 44.8906 65.7663 44.8906C64.8194 44.8906 64.0997 45.3026 63.6072 46.1264C63.1196 46.9503 62.871 48.0701 62.8615 49.4858H62.9609C63.1787 49.0549 63.4723 48.688 63.8416 48.3849C64.2157 48.0772 64.6394 47.8428 65.1129 47.6818C65.5911 47.5161 66.0954 47.4332 66.6257 47.4332C67.4875 47.4332 68.2545 47.6368 68.9268 48.044C69.5992 48.4465 70.1295 49.0005 70.5178 49.706C70.906 50.4115 71.1001 51.2187 71.1001 52.1278C71.1001 53.1127 70.8705 53.9886 70.4112 54.7557C69.9567 55.5227 69.3198 56.1241 68.5007 56.5597C67.6863 56.9905 66.7393 57.2036 65.6598 57.1989ZM65.6456 54.7841C66.1191 54.7841 66.5429 54.6705 66.9169 54.4432C67.291 54.2159 67.5845 53.9081 67.7976 53.5199C68.0107 53.1316 68.1172 52.696 68.1172 52.2131C68.1172 51.7301 68.0107 51.2969 67.7976 50.9134C67.5893 50.5298 67.3004 50.2244 66.9311 49.9972C66.5618 49.7699 66.1404 49.6562 65.6669 49.6562C65.3118 49.6562 64.9827 49.7225 64.6797 49.8551C64.3814 49.9877 64.1186 50.1723 63.8913 50.4091C63.6688 50.6458 63.4936 50.9205 63.3658 51.233C63.2379 51.5407 63.174 51.8698 63.174 52.2202C63.174 52.6889 63.2805 53.1174 63.4936 53.5057C63.7114 53.8939 64.005 54.2041 64.3743 54.4361C64.7483 54.6681 65.1721 54.7841 65.6456 54.7841Z" fill="white"/>
</g>
<defs>
<clipPath id="clip0_1_85">
<rect width="100" height="100" fill="white"/>
</clipPath>
</defs>
</svg>
