<svg width="113" height="201" viewBox="0 0 113 201" fill="none" xmlns="http://www.w3.org/2000/svg">
<rect width="113" height="201" fill="white" fill-opacity="0.1"/>
<rect x="1.5" y="105.5" width="24" height="23" rx="3.5" fill="#ABABAB" stroke="#7C7C7C"/>
<rect x="87.5" y="105.5" width="24" height="23" rx="3.5" fill="#ABABAB" stroke="#7C7C7C"/>
<rect x="1.5" y="139.5" width="24" height="23" rx="3.5" fill="#ABABAB" stroke="#7C7C7C"/>
<rect x="87.5" y="139.5" width="24" height="23" rx="3.5" fill="#ABABAB" stroke="#7C7C7C"/>
<rect x="1.5" y="71.5" width="24" height="23" rx="3.5" fill="#ABABAB" stroke="#7C7C7C"/>
<rect x="87.5" y="71.5" width="24" height="23" rx="3.5" fill="#ABABAB" stroke="#7C7C7C"/>
<rect x="1.5" y="37.5" width="24" height="23" rx="3.5" fill="#ABABAB" stroke="#7C7C7C"/>
<rect x="87.5" y="37.5" width="24" height="23" rx="3.5" fill="#ABABAB" stroke="#7C7C7C"/>
<rect x="43.5" y="1.5" width="24" height="23" rx="3.5" fill="#ABABAB" stroke="#7C7C7C"/>
<rect x="43.5" y="176.5" width="24" height="23" rx="3.5" fill="#ABABAB" stroke="#7C7C7C"/>
<rect x="18.5" y="17.5" width="76" height="166" rx="19.5" fill="#D9D9D9" stroke="#7C7C7C"/>
<path d="M26.7102 95.9901V93.4545H38.6562V95.9901H34.2031V108H31.1634V95.9901H26.7102ZM41.1136 108L47.1435 96.0682V95.9688H40.1193V93.4545H50.3253V96.0043L44.2884 108H41.1136Z" fill="black"/>
<rect x="58" y="90" width="30" height="21" rx="2" fill="#FF007F"/>
<path d="M68.7298 93.4545V108H65.6545V96.3736H65.5692L62.2383 98.4616V95.7344L65.8391 93.4545H68.7298ZM77.8899 108.32C76.6683 108.315 75.6172 108.014 74.7365 107.418C73.8606 106.821 73.1858 105.957 72.7124 104.825C72.2436 103.694 72.0116 102.332 72.0163 100.741C72.0163 99.1553 72.2507 97.8035 72.7195 96.6861C73.1929 95.5687 73.8677 94.7187 74.7436 94.1364C75.6243 93.5492 76.6731 93.2557 77.8899 93.2557C79.1068 93.2557 80.1532 93.5492 81.0291 94.1364C81.9098 94.7235 82.5869 95.5758 83.0604 96.6932C83.5339 97.8059 83.7682 99.1553 83.7635 100.741C83.7635 102.337 83.5268 103.701 83.0533 104.832C82.5845 105.964 81.9122 106.828 81.0362 107.425C80.1603 108.021 79.1115 108.32 77.8899 108.32ZM77.8899 105.77C78.7232 105.77 79.3885 105.351 79.8857 104.513C80.3828 103.675 80.629 102.418 80.6243 100.741C80.6243 99.6383 80.5107 98.7197 80.2834 97.9858C80.0608 97.2519 79.7436 96.7003 79.3317 96.331C78.9245 95.9616 78.4439 95.777 77.8899 95.777C77.0613 95.777 76.3984 96.1913 75.9013 97.0199C75.4041 97.8485 75.1532 99.089 75.1484 100.741C75.1484 101.859 75.2597 102.792 75.4822 103.54C75.7095 104.283 76.0291 104.842 76.4411 105.216C76.853 105.585 77.3359 105.77 77.8899 105.77Z" fill="white"/>
</svg>
