<svg width="113" height="201" viewBox="0 0 113 201" fill="none" xmlns="http://www.w3.org/2000/svg">
<rect width="113" height="201" fill="white" fill-opacity="0.1"/>
<rect x="1.5" y="105.5" width="24" height="23" rx="3.5" fill="#ABABAB" stroke="#7C7C7C"/>
<rect x="87.5" y="105.5" width="24" height="23" rx="3.5" fill="#ABABAB" stroke="#7C7C7C"/>
<rect x="1.5" y="139.5" width="24" height="23" rx="3.5" fill="#ABABAB" stroke="#7C7C7C"/>
<rect x="87.5" y="139.5" width="24" height="23" rx="3.5" fill="#ABABAB" stroke="#7C7C7C"/>
<rect x="1.5" y="71.5" width="24" height="23" rx="3.5" fill="#ABABAB" stroke="#7C7C7C"/>
<rect x="87.5" y="71.5" width="24" height="23" rx="3.5" fill="#ABABAB" stroke="#7C7C7C"/>
<rect x="1.5" y="37.5" width="24" height="23" rx="3.5" fill="#ABABAB" stroke="#7C7C7C"/>
<rect x="87.5" y="37.5" width="24" height="23" rx="3.5" fill="#ABABAB" stroke="#7C7C7C"/>
<rect x="43.5" y="1.5" width="24" height="23" rx="3.5" fill="#ABABAB" stroke="#7C7C7C"/>
<rect x="43.5" y="176.5" width="24" height="23" rx="3.5" fill="#ABABAB" stroke="#7C7C7C"/>
<rect x="18.5" y="17.5" width="76" height="166" rx="19.5" fill="#D9D9D9" stroke="#7C7C7C"/>
<path d="M26.7102 95.9901V93.4545H38.6562V95.9901H34.2031V108H31.1634V95.9901H26.7102ZM45.9645 108.199C44.8707 108.199 43.8977 108.021 43.0455 107.666C42.1979 107.306 41.5327 106.816 41.0497 106.196C40.5668 105.576 40.3253 104.873 40.3253 104.087C40.3253 103.481 40.4626 102.924 40.7372 102.418C41.0166 101.906 41.3954 101.482 41.8736 101.146C42.3518 100.805 42.8868 100.588 43.4787 100.493V100.393C42.7022 100.237 42.0724 99.8608 41.5895 99.2642C41.1065 98.6629 40.8651 97.9645 40.8651 97.169C40.8651 96.4162 41.0852 95.7462 41.5256 95.1591C41.9659 94.5672 42.5696 94.1032 43.3366 93.767C44.1084 93.4261 44.9844 93.2557 45.9645 93.2557C46.9446 93.2557 47.8182 93.4261 48.5852 93.767C49.357 94.108 49.9631 94.5743 50.4034 95.1662C50.8438 95.7533 51.0663 96.4209 51.071 97.169C51.0663 97.9692 50.8201 98.6676 50.3324 99.2642C49.8447 99.8608 49.2197 100.237 48.4574 100.393V100.493C49.0398 100.588 49.5677 100.805 50.0412 101.146C50.5194 101.482 50.8982 101.906 51.1776 102.418C51.4616 102.924 51.6061 103.481 51.6108 104.087C51.6061 104.873 51.3622 105.576 50.8793 106.196C50.3963 106.816 49.7287 107.306 48.8764 107.666C48.0289 108.021 47.0582 108.199 45.9645 108.199ZM45.9645 105.94C46.4522 105.94 46.8783 105.853 47.2429 105.678C47.6075 105.498 47.8916 105.251 48.0952 104.939C48.3035 104.622 48.4077 104.257 48.4077 103.845C48.4077 103.424 48.3011 103.052 48.0881 102.73C47.875 102.403 47.5862 102.148 47.2216 101.963C46.857 101.774 46.438 101.679 45.9645 101.679C45.4957 101.679 45.0767 101.774 44.7074 101.963C44.3381 102.148 44.0469 102.403 43.8338 102.73C43.6255 103.052 43.5213 103.424 43.5213 103.845C43.5213 104.257 43.6231 104.622 43.8267 104.939C44.0303 105.251 44.3168 105.498 44.6861 105.678C45.0554 105.853 45.4815 105.94 45.9645 105.94ZM45.9645 99.4418C46.3717 99.4418 46.7339 99.3589 47.0511 99.1932C47.3684 99.0275 47.617 98.7978 47.7969 98.5043C47.9768 98.2107 48.0668 97.8722 48.0668 97.4886C48.0668 97.1098 47.9768 96.7784 47.7969 96.4943C47.617 96.2055 47.3707 95.9806 47.0582 95.8196C46.7457 95.6539 46.3812 95.571 45.9645 95.571C45.5526 95.571 45.188 95.6539 44.8707 95.8196C44.5535 95.9806 44.3049 96.2055 44.125 96.4943C43.9498 96.7784 43.8622 97.1098 43.8622 97.4886C43.8622 97.8722 43.9522 98.2107 44.1321 98.5043C44.312 98.7978 44.5606 99.0275 44.8778 99.1932C45.1951 99.3589 45.5573 99.4418 45.9645 99.4418Z" fill="black"/>
<rect x="58" y="90" width="30" height="21" rx="2" fill="#FF007F"/>
<path d="M68.7298 93.4545V108H65.6545V96.3736H65.5692L62.2383 98.4616V95.7344L65.8391 93.4545H68.7298ZM77.8899 108.32C76.6683 108.315 75.6172 108.014 74.7365 107.418C73.8606 106.821 73.1858 105.957 72.7124 104.825C72.2436 103.694 72.0116 102.332 72.0163 100.741C72.0163 99.1553 72.2507 97.8035 72.7195 96.6861C73.1929 95.5687 73.8677 94.7187 74.7436 94.1364C75.6243 93.5492 76.6731 93.2557 77.8899 93.2557C79.1068 93.2557 80.1532 93.5492 81.0291 94.1364C81.9098 94.7235 82.5869 95.5758 83.0604 96.6932C83.5339 97.8059 83.7682 99.1553 83.7635 100.741C83.7635 102.337 83.5268 103.701 83.0533 104.832C82.5845 105.964 81.9122 106.828 81.0362 107.425C80.1603 108.021 79.1115 108.32 77.8899 108.32ZM77.8899 105.77C78.7232 105.77 79.3885 105.351 79.8857 104.513C80.3828 103.675 80.629 102.418 80.6243 100.741C80.6243 99.6383 80.5107 98.7197 80.2834 97.9858C80.0608 97.2519 79.7436 96.7003 79.3317 96.331C78.9245 95.9616 78.4439 95.777 77.8899 95.777C77.0613 95.777 76.3984 96.1913 75.9013 97.0199C75.4041 97.8485 75.1532 99.089 75.1484 100.741C75.1484 101.859 75.2597 102.792 75.4822 103.54C75.7095 104.283 76.0291 104.842 76.4411 105.216C76.853 105.585 77.3359 105.77 77.8899 105.77Z" fill="white"/>
</svg>
